# xmcd
# Track frame offsets:
# 150
# 20613
# 37979
# 59235
# 73558
# 90672
# 107981
# 123900
# 146361
# 163473
# 180772
#
# Disc length: 2518 seconds
# Revision: 0
# Processed by: cddbd v1.5.2PL0 Copyright (c) Steve Scherf et al.
# Submitted via: VisiTrax 2.11.3.279 - For more info visit www.synapsa.com
#
DISCID=9709d40b
DTITLE=Billy Watson - The 10th Square Peg
DYEAR=2015
DGENRE=Blues
TTITLE0=Wreck My Life
TTITLE1=Don't Tell Me
TTITLE2=Stop That Child
TTITLE3=Say Unto You
TTITLE4=Who's Snoring
TTITLE5=Should I Stay
TTITLE6=Lonesome Cloud Swing
TTITLE7=Vietnam
TTITLE8=Come Down To The Lobby
TTITLE9=Beautiful Martian
TTITLE10=Bonus Track - Late For My Own Stakeout
EXTD=
EXTT0=
EXTT1=
EXTT2=
EXTT3=
EXTT4=
EXTT5=
EXTT6=
EXTT7=
EXTT8=
EXTT9=
EXTT10=
PLAYORDER=
